<?xml version="1.0" standalone="no"?>
<!DOCTYPE svg PUBLIC "-//W3C//DTD SVG 20010904//EN"
 "http://www.w3.org/TR/2001/REC-SVG-20010904/DTD/svg10.dtd">
<svg version="1.0" xmlns="http://www.w3.org/2000/svg"
 width="305.000000pt" height="305.000000pt" viewBox="0 0 305.000000 305.000000"
 preserveAspectRatio="xMidYMid meet">
<metadata>
Created by potrace 1.11, written by Peter Selinger 2001-2013
</metadata>
<g transform="translate(0.000000,305.000000) scale(0.100000,-0.100000)"
fill="#000000" stroke="none">
<path d="M1322 3030 c-315 -69 -571 -264 -715 -545 -37 -71 -82 -196 -91 -250
-2 -17 -8 -50 -12 -75 -19 -122 -8 -279 30 -415 51 -186 146 -334 328 -510 57
-55 121 -122 143 -149 93 -112 185 -271 245 -421 17 -44 37 -87 44 -95 14 -17
26 -56 56 -177 23 -95 25 -117 8 -110 -7 2 -23 1 -35 -4 -22 -8 -23 -13 -23
-132 0 -82 4 -127 12 -135 17 -17 399 -17 416 0 8 8 12 53 12 135 0 119 -1
124 -22 132 -13 5 -29 6 -35 4 -17 -7 -16 20 2 87 8 30 22 85 31 123 8 37 19
67 24 67 4 0 23 37 41 83 62 156 125 269 218 392 55 73 38 54 197 216 71 74
152 168 179 209 69 105 125 240 150 360 53 252 -1 537 -144 760 -46 72 -43 69
-137 164 -141 143 -332 250 -503 281 -14 3 -37 7 -51 11 -14 3 -81 8 -150 10
-99 3 -144 0 -218 -16z m236 -67 c37 -52 81 -188 97 -299 4 -21 8 -46 10 -54
9 -34 20 -137 32 -300 14 -179 7 -583 -13 -725 -2 -16 -6 -50 -9 -74 -6 -60
-23 -152 -41 -236 -22 -100 -24 -106 -30 -145 -4 -19 -16 -98 -28 -175 l-21
-140 -28 1 c-15 1 -31 2 -36 3 -5 0 -12 27 -15 59 -13 103 -48 306 -67 382
-10 41 -20 91 -23 110 -3 19 -7 44 -9 55 -4 18 -13 80 -22 160 -26 213 -25
668 1 875 3 25 7 61 10 80 2 19 6 46 9 60 2 14 7 41 9 60 3 19 8 45 11 58 3
12 7 31 10 43 14 67 61 186 83 212 22 25 48 21 70 -10z m-153 -22 c-21 -41
-59 -168 -70 -236 -2 -11 -6 -37 -9 -59 -4 -21 -8 -41 -10 -45 -2 -3 -7 -40
-10 -81 -4 -41 -9 -84 -11 -95 -9 -43 -17 -237 -17 -390 -1 -194 7 -337 28
-502 13 -109 23 -173 30 -203 15 -60 54 -251 59 -288 3 -25 8 -48 10 -51 2 -5
10 -71 17 -151 2 -22 -6 -28 -34 -26 -30 2 -33 7 -63 87 -45 121 -108 246
-178 352 -79 121 -119 196 -152 287 -15 41 -28 80 -29 85 -6 26 -26 123 -31
150 -33 174 -24 419 22 605 70 286 257 541 431 590 35 9 36 7 17 -29z m291 8
c182 -88 327 -310 394 -603 53 -231 43 -519 -25 -743 -35 -114 -65 -175 -153
-318 -64 -102 -127 -218 -164 -300 -4 -11 -21 -54 -36 -95 -29 -78 -31 -80
-91 -71 -4 0 -4 25 1 54 4 28 11 75 14 102 3 28 23 138 45 245 22 107 42 209
44 225 9 92 16 152 20 165 8 31 18 271 17 430 0 151 -7 302 -17 390 -2 19 -7
67 -11 105 -3 39 -8 73 -10 76 -2 4 -6 24 -10 45 -11 75 -54 235 -74 274 -31
61 -32 61 56 19z m-524 -56 c-123 -123 -219 -303 -271 -508 -14 -54 -26 -122
-36 -205 -7 -55 -7 -239 0 -297 3 -24 7 -61 10 -84 6 -55 41 -203 63 -264 29
-85 90 -202 153 -296 33 -49 79 -127 101 -172 49 -98 109 -247 100 -248 -4 0
-15 -2 -24 -4 -13 -2 -30 19 -64 78 -46 79 -140 215 -173 248 -237 241 -300
312 -340 382 -99 176 -140 326 -136 508 4 220 44 351 163 533 42 65 203 236
222 236 5 0 15 6 22 13 18 17 105 70 148 88 19 9 46 21 60 27 49 21 49 11 2
-35z m758 10 c129 -60 281 -184 367 -298 65 -86 134 -232 163 -344 34 -129 34
-333 0 -465 -50 -199 -118 -313 -299 -499 -167 -171 -145 -148 -213 -237 -31
-41 -79 -113 -105 -159 -35 -60 -55 -85 -71 -87 -14 -3 -22 1 -22 10 0 32 137
335 160 356 3 3 32 47 64 98 94 150 160 318 181 465 4 23 11 62 15 87 10 49 6
387 -4 435 -28 128 -50 210 -73 270 -52 142 -142 285 -228 364 -44 41 -45 43
-19 37 16 -4 53 -19 84 -33z m-174 -2154 c3 -6 2 -21 -4 -32 -6 -12 -18 -39
-26 -60 l-15 -37 -192 2 -193 3 -23 60 c-13 32 -23 63 -23 67 0 12 468 9 476
-3z m-273 -188 c4 -1 7 -64 7 -140 l0 -140 -27 2 c-27 2 -29 7 -61 131 -18 71
-31 134 -29 140 4 9 52 12 110 7z m183 -4 c4 -3 1 -28 -6 -54 -6 -26 -14 -57
-16 -68 -2 -11 -12 -49 -22 -85 -15 -58 -20 -65 -45 -67 l-27 -2 0 138 c0 76
2 140 4 142 7 7 105 4 112 -4z m15 -351 c2 -51 -1 -140 -6 -144 -7 -7 -304 -6
-311 1 -4 4 -8 111 -5 153 1 7 56 10 161 11 156 0 160 -1 161 -21z"/>
</g>
</svg>
